<?xml version="1.0" encoding="UTF-8"?>
<svg version="1.1" xmlns="http://www.w3.org/2000/svg" width="700" height="700">
<path d="M0 0 C1.80588964 -0.01451001 1.80588964 -0.01451001 3.6482619 -0.02931315 C4.96740907 -0.02466734 6.28655624 -0.02002154 7.64567757 -0.01523495 C9.06394086 -0.02084018 10.48219952 -0.02774265 11.90045083 -0.03583091 C15.79783434 -0.05419331 19.69502489 -0.05378324 23.5924418 -0.05024779 C27.79569305 -0.04963598 31.9988822 -0.06618995 36.20210457 -0.08042049 C44.43682636 -0.10534594 52.67148373 -0.11358526 60.90624009 -0.11525763 C67.59895788 -0.11668275 74.2916544 -0.12284521 80.98436546 -0.1323595 C99.95548565 -0.15878022 118.9265549 -0.17261737 137.89769362 -0.17036808 C139.43198422 -0.17018828 139.43198422 -0.17018828 140.99727058 -0.17000484 C142.53343229 -0.16982088 142.53343229 -0.16982088 144.10062756 -0.1696332 C160.70170836 -0.16841357 177.30258511 -0.19712797 193.90360688 -0.23941994 C210.94553056 -0.28249295 227.98735467 -0.30323154 245.02933419 -0.30063862 C254.59872944 -0.2996421 264.16791074 -0.30790935 273.737257 -0.34017277 C281.88406738 -0.36746387 290.03056682 -0.37403365 298.17740308 -0.3536445 C302.33436973 -0.34383642 306.49073956 -0.34372128 310.64764977 -0.36970425 C314.45388577 -0.39325075 318.25905015 -0.38905887 322.06525947 -0.36285185 C324.09291426 -0.35605035 326.12060185 -0.37877336 328.14812839 -0.40257078 C338.00958717 -0.2900509 338.00958717 -0.2900509 342.29304886 3.29201698 C344.50033741 5.58324514 346.35465677 7.95732913 347.88350105 10.75699711 C348.33499519 11.56596439 348.78648933 12.37493168 349.25166512 13.20841312 C349.94727547 14.50283329 349.94727547 14.50283329 350.65693855 15.82340336 C351.70639941 17.71664268 352.75587922 19.60987148 353.80537605 21.50309086 C354.33872566 22.47729984 354.87207527 23.45150883 355.42158699 24.4552393 C357.99814316 29.14429027 360.6432154 33.79415265 363.28193855 38.44840336 C364.37181029 40.37937714 365.46165334 42.31036712 366.5514698 44.24137211 C369.99569694 50.3322679 373.47071959 56.40541143 376.94807625 62.47742558 C382.93791888 72.93674174 388.86968047 83.42627198 394.74263191 93.95182133 C399.45631278 102.38753071 404.24471869 110.77920531 409.05043221 119.16263676 C413.80479716 127.45828827 418.50364221 135.78302681 423.15693855 144.13590336 C428.25262414 153.27816279 433.48005327 162.33448807 438.7780323 171.36075687 C443.60099553 179.59796266 448.27869206 187.91121864 452.92695808 196.24796391 C458.01818464 205.37728078 463.1923633 214.4568525 468.39229012 223.52457523 C471.18832012 228.40388906 473.97692986 233.28744277 476.76634407 238.17054081 C478.46536267 241.14478063 480.16462302 244.11888229 481.8639698 247.09293461 C482.20506279 247.68989643 482.54615578 248.28685825 482.89758492 248.90190983 C485.7134001 253.82951405 488.53129606 258.75592638 491.35048103 263.68160343 C493.06745567 266.6821637 494.78233955 269.68387973 496.49238777 272.68839359 C499.28556091 277.59375965 502.08277231 282.49347173 504.9655323 287.34684086 C514.11483579 302.85235518 514.11483579 302.85235518 512.2858448 312.19840336 C511.14461265 316.41670289 509.38284921 320.07001173 507.28193855 323.88590336 C506.89417244 324.6045557 506.50640633 325.32320805 506.10688972 326.06363773 C502.07760553 333.45260076 497.80481376 340.70233405 493.53877449 347.95621586 C489.27491976 355.21500216 485.12350518 362.52878062 481.03193855 369.88590336 C475.8959261 379.11538155 470.62980913 388.25828003 465.28193855 397.36637211 C461.10949896 404.49118526 457.04698611 411.67136477 453.03193855 418.88590336 C447.89562466 428.11521738 442.62981321 437.25827309 437.28193855 446.36637211 C432.50153249 454.52934228 427.8765519 462.77304141 423.27754402 471.03922367 C419.32525824 478.12494237 415.27215687 485.1437564 411.15693855 492.13590336 C405.60266066 501.5806777 400.27515453 511.13757671 395.01298714 520.7465601 C389.90806929 530.0621662 384.64526209 539.27177974 379.25288582 548.42447758 C374.86962935 555.88764173 370.64838526 563.43170898 366.46943855 571.01090336 C361.64848833 579.74860055 356.7370464 588.42099301 351.65693855 597.01090336 C351.10320564 597.9475684 350.54947273 598.88423344 349.97896004 599.84928226 C346.17186663 606.24597528 346.17186663 606.24597528 345.03193855 607.38590336 C343.11889086 607.48357851 341.20217678 607.50961654 339.28663731 607.50895119 C337.40261712 607.51193776 337.40261712 607.51193776 335.48053592 607.51498467 C334.06858772 607.51213107 332.65663969 607.50918546 331.24469185 607.50615788 C329.75890048 607.50659345 328.27310918 607.50746809 326.78731829 607.50874704 C322.68500135 607.51099478 318.58271027 607.50696693 314.48039663 607.50196898 C310.06387669 607.49766864 305.64735831 607.49911061 301.23083687 607.49987125 C293.57244646 607.50039676 285.91406454 607.49724724 278.25567627 607.49163342 C267.18279943 607.48352193 256.10992671 607.48090356 245.03704721 607.47964542 C227.0739976 607.47745435 209.11095251 607.47079276 191.14790535 607.46134281 C173.69380402 607.45217013 156.23970392 607.44508859 138.78560066 607.440835 C137.17301714 607.44044091 137.17301714 607.44044091 135.52785616 607.44003887 C130.13486115 607.43873387 124.74186614 607.43747015 119.34887111 607.43622696 C74.57655712 607.42585262 29.80424807 607.4082328 -14.96806145 607.38590336 C-70.21806145 509.63590335 -70.21806145 509.63590335 -71.84232903 506.76212406 C-72.92801799 504.8413399 -74.01379303 502.92060439 -75.09965324 500.99991703 C-77.77264567 496.27163883 -80.44424232 491.54258424 -83.1125927 486.81168461 C-89.34775314 475.76147144 -95.62242267 464.73460838 -101.92860222 453.72480106 C-106.70109061 445.39000167 -111.41839982 437.02605139 -116.09306145 428.63590336 C-120.60570881 420.53863328 -125.20944984 412.50310899 -129.90556145 404.51090336 C-135.54767572 394.90871729 -140.98208614 385.20370009 -146.36234856 375.45279789 C-150.46538822 368.03664262 -154.67388904 360.69279526 -158.96806145 353.38590336 C-160.10661405 351.43178601 -161.24462993 349.47735585 -162.38212395 347.52262211 C-164.25005112 344.31365927 -166.1281363 341.11190606 -168.03739738 337.92740726 C-169.82298559 334.94804416 -171.57941919 331.95297628 -173.32011223 328.94718266 C-174.30955372 327.25568638 -175.32781139 325.58114833 -176.3469677 323.90738773 C-180.7086567 316.31395688 -182.31996367 310.12805854 -180.96806145 301.38590336 C-180.13154562 298.48980821 -178.91921256 296.1325777 -177.34306145 293.57340336 C-176.74787712 292.52926273 -176.74787712 292.52926273 -176.14066887 291.46402836 C-174.77679518 289.08786647 -173.37302303 286.73797815 -171.96806145 284.38590336 C-170.89152279 282.53959784 -169.8174149 280.69187342 -168.7454052 278.84293461 C-166.39008985 274.78768135 -164.0202453 270.74132877 -161.6438427 266.69840336 C-158.00045029 260.4740738 -154.47332852 254.18878987 -150.96806145 247.88590336 C-145.832049 238.65642517 -140.56593203 229.51352669 -135.21806145 220.40543461 C-131.04562185 213.28062146 -126.98310901 206.10044195 -122.96806145 198.88590336 C-118.39233953 190.66390304 -113.73218362 182.50019345 -108.96806145 174.38590336 C-103.65100841 165.32634347 -98.47084341 156.19917414 -93.35868645 147.02262211 C-88.61580126 138.51704801 -83.79351354 130.05876894 -78.95011711 121.61026859 C-74.19558119 113.31424591 -69.49649879 104.98916724 -64.84306145 96.63590336 C-59.77198704 87.53647229 -54.56508744 78.52623282 -49.28788567 69.54508305 C-44.90176358 62.05288786 -40.6627277 54.48670363 -36.46806145 46.88590336 C-31.50155569 37.89108163 -26.45581565 28.94994696 -21.28056145 20.07340336 C-20.70435051 19.08340336 -20.12813957 18.09340336 -19.5344677 17.07340336 C-18.02778044 14.50127297 -16.50364094 11.94086012 -14.96806145 9.38590336 C-14.42157951 8.45125248 -14.42157951 8.45125248 -13.86405754 7.49771976 C-10.38797221 1.83845154 -6.54169466 0.01330168 0 0 Z M9.03193855 18.38590336 C13.02162672 28.85475406 13.02162672 28.85475406 17.5280323 39.00309086 C17.83840431 39.65600605 18.14877632 40.30892124 18.46855354 40.98162174 C19.46485959 43.07664322 20.46715574 45.16873577 21.46943855 47.26090336 C22.89246498 50.24740916 24.31104174 53.23600303 25.72725105 56.22574711 C26.08472923 56.98015583 26.44220741 57.73456455 26.81051826 58.51183414 C29.2965155 63.77799649 31.71290815 69.07216519 34.08662605 74.38980961 C34.406661 75.10584354 34.72669594 75.82187748 35.05642891 76.55960941 C36.58157398 79.97706274 38.09722313 83.3984037 39.60200691 86.8248682 C40.14747214 88.05232854 40.69311634 89.27970937 41.2389698 90.50699711 C41.94243538 92.10692509 41.94243538 92.10692509 42.66011238 93.73917484 C44.28721166 97.08808802 44.28721166 97.08808802 47.03193855 99.38590336 C54.21228939 100.25522978 60.24307686 98.01706333 66.9889698 95.72184086 C68.14672417 95.33862171 69.30447853 94.95540257 70.49731636 94.56057072 C73.63061909 93.5213163 76.76025962 92.47182137 79.88865852 91.41792011 C83.19509038 90.3071709 86.50622352 89.21062877 89.8170948 88.11319828 C94.48402129 86.56519527 99.14977966 85.01378186 103.81375885 83.45692062 C112.9003153 80.42388418 122.00175223 77.43895118 131.11366463 74.48310184 C133.58508039 73.68115952 136.05589139 72.87737737 138.52656746 72.07315922 C150.73828859 68.09933732 162.95532244 64.14192762 175.17247391 60.18484211 C188.66219336 55.81548745 202.14976386 51.43954052 215.63580513 47.05884647 C224.40269518 44.2113918 233.17137646 41.36958243 241.94234943 38.534729 C247.98458013 36.58126581 254.02459686 34.62105899 260.06296444 32.65568733 C263.60168605 31.50414632 267.14135997 30.35576691 270.68364143 29.21521854 C274.57252848 27.96297631 278.45667253 26.6966205 282.3405323 25.42887211 C283.48995308 25.06122746 284.63937386 24.6935828 285.82362556 24.3147974 C286.86875313 23.97112125 287.91388069 23.62744511 288.99067879 23.27335453 C289.89777092 22.97934254 290.80486305 22.68533054 291.73944283 22.3824091 C294.38583506 21.3986104 294.38583506 21.3986104 297.03193855 18.38590336 C201.99193855 18.38590336 106.95193855 18.38590336 9.03193855 18.38590336 Z M315.0670948 33.07730961 C314.15576286 33.36955921 313.24443092 33.66180882 312.30548286 33.96291447 C309.23272577 34.95076745 306.16361491 35.94948548 303.09443855 36.94840336 C300.89080281 37.65977562 298.68702272 38.37070085 296.48311043 39.08121586 C275.01277863 46.01717379 253.58665169 53.09007186 232.15713978 60.15090561 C215.78273348 65.5455002 199.39886591 70.90197937 182.96672249 76.11875248 C159.63438435 83.52713919 136.36196339 91.11840012 113.10194588 98.75034428 C109.02024352 100.0893926 104.93740038 101.42487254 100.85353279 102.75730228 C96.01604573 104.33588377 91.18104837 105.92186666 86.34786224 107.51356602 C84.53716313 108.10855176 82.72561299 108.7009541 80.91320419 109.2907114 C78.416485 110.10370622 75.92300096 110.92593803 73.43013191 111.75064945 C72.68929422 111.98953199 71.94845654 112.22841454 71.18516922 112.47453594 C67.38836378 113.50662102 67.38836378 113.50662102 65.03193855 116.38590336 C66.01549324 116.95695805 66.99904793 117.52801273 68.0124073 118.11637211 C77.02872217 123.37386587 85.94577372 128.7721573 94.8080616 134.28507328 C101.35910588 138.35808038 107.9376281 142.38336448 114.53193855 146.38590336 C122.75411644 151.37848145 130.94557686 156.41763348 139.11787605 161.49137211 C145.5681151 165.49129512 152.04461579 169.44645365 158.53193855 173.38590336 C166.68264394 178.33641956 174.807203 183.32659548 182.91133308 188.35294437 C199.12936632 198.41090919 215.38883154 208.40039356 231.69941902 218.30753422 C238.86368395 222.66351147 245.99572575 227.06965876 253.11909676 231.49210453 C259.56890456 235.49182104 266.04497891 239.44677103 272.53193855 243.38590336 C280.75400814 248.37866143 288.94557509 253.41763238 297.11787605 258.49137211 C303.56811438 262.49129467 310.04457319 266.44652466 316.53193855 270.38590336 C323.88666623 274.85197794 331.22160412 279.34752501 338.53193855 283.88590336 C346.13738122 288.60569603 353.76312606 293.29098797 361.40693855 297.94840336 C362.36406746 298.53234867 363.32119637 299.11629398 364.30732918 299.71793461 C369.17675055 302.68042551 374.06589927 305.58823109 379.03193855 308.38590336 C378.53945465 296.52755882 376.36114147 285.02131916 374.2545948 273.36637211 C373.85560666 271.13189846 373.45716523 268.89732712 373.05922127 266.66266727 C371.97293638 260.57273527 370.87847492 254.48429922 369.78218651 248.39616108 C368.74210667 242.61501231 367.70717574 236.83294325 366.67184579 231.0509423 C364.68457271 219.95419558 362.69151177 208.85849671 360.69514334 197.76338303 C358.29668129 184.43348428 355.90580856 171.10225058 353.52217293 157.76969242 C350.84455712 142.79284003 348.16203773 127.81687751 345.4727335 112.84211922 C345.17954374 111.209468 344.88636166 109.5768154 344.59318733 107.94416142 C344.44861558 107.13906185 344.30404382 106.33396228 344.15509111 105.50446576 C343.13352305 99.8135947 342.11530279 94.12213045 341.09837532 88.4304285 C339.85326046 81.46204529 338.60310672 74.49458855 337.34655035 67.52825904 C336.70047587 63.94565588 336.05674048 60.36267223 335.41907692 56.77856159 C334.72453319 52.87520261 334.01905884 48.97386604 333.31245613 45.07267094 C333.10947442 43.92207786 332.90649271 42.77148478 332.69736004 41.58602524 C332.41067408 40.01855907 332.41067408 40.01855907 332.11819649 38.41942692 C331.95558232 37.51354737 331.79296816 36.60766783 331.62542629 35.67433739 C331.09964863 33.13206858 331.09964863 33.13206858 329.03193855 30.38590336 C324.2352253 29.5595097 319.57452248 31.60107033 315.0670948 33.07730961 Z M-6.96806145 32.38590336 C-7.38765129 33.12018559 -7.38765129 33.12018559 -7.8157177 33.8693018 C-8.68402699 35.38884306 -9.55235602 36.90837305 -10.42069817 38.42789555 C-11.47454858 40.2722169 -12.52825374 42.11662125 -13.58183098 43.96109867 C-16.66296191 49.35462058 -19.74697334 54.74646887 -22.83524895 60.13590336 C-29.94022826 72.53995835 -36.99435028 84.96936688 -43.9641552 97.45011234 C-49.56287308 107.4686609 -55.25873988 117.43010476 -60.96806145 127.38590336 C-63.59484065 131.96821993 -66.21999674 136.55145986 -68.84306145 141.13590336 C-69.182528 141.72904331 -69.52199455 142.32218327 -69.87174797 142.93329716 C-74.6620813 151.30671911 -79.39723975 159.70900052 -84.09306145 168.13590336 C-89.16426197 177.23526613 -94.37103364 186.2455708 -99.64823723 195.22672367 C-104.0343573 202.7189154 -108.2735119 210.28504176 -112.46806145 217.88590336 C-117.26273268 226.5723693 -122.1386313 235.20077063 -127.15556145 243.76090336 C-128.00743034 245.21617435 -128.00743034 245.21617435 -128.87650871 246.70084476 C-131.16809557 250.61302132 -133.46148915 254.52412279 -135.75907707 258.43277836 C-137.48244394 261.3709776 -139.19512383 264.31516379 -140.90556145 267.26090336 C-141.69579704 268.59967533 -141.69579704 268.59967533 -142.50199699 269.9654932 C-142.9741967 270.78227543 -143.44639641 271.59905766 -143.9329052 272.44059086 C-144.35176994 273.15714848 -144.77063469 273.87370609 -145.20219231 274.61197758 C-145.45492912 275.19737309 -145.70766594 275.78276859 -145.96806145 276.38590336 C-145.63806145 277.04590336 -145.30806145 277.70590336 -144.96806145 278.38590336 C-139.43631243 273.60806328 -134.03427358 268.71459103 -128.71806145 263.69840336 C-127.98079826 263.00432377 -127.24353508 262.31024418 -126.48393059 261.59513187 C-121.54211823 256.92401547 -116.7040307 252.16490797 -111.92728996 247.32584476 C-109.41900377 244.79631294 -106.87468339 242.37419885 -104.15556145 240.07340336 C-100.03102117 236.5714352 -96.27235319 232.72725139 -92.46806145 228.88590336 C-88.16618932 224.54225027 -83.86498233 220.32541568 -79.18681145 216.38590336 C-75.11318065 212.71389813 -71.31676156 208.75257164 -67.45853996 204.85685062 C-63.79959173 201.17597337 -60.09066054 197.66424176 -56.1204052 194.31949711 C-52.28847912 190.87702268 -48.72304228 187.15923934 -45.10062981 183.49894047 C-41.57327767 179.94887701 -37.97924328 176.58500526 -34.15556145 173.35465336 C-30.96985394 170.4875166 -27.98221387 167.43158457 -24.96806145 164.38590336 C-20.82297814 160.19746144 -16.65889786 156.15919619 -12.15556145 152.35465336 C-8.36093653 148.93949094 -4.81197623 145.26944979 -1.24149895 141.62223148 C2.34678541 137.98069633 6.06422619 134.57335054 9.93037605 131.22965336 C13.73680899 127.8901806 17.39566105 124.40874412 21.03193855 120.88590336 C22.1940284 119.80502445 22.1940284 119.80502445 23.3795948 118.70230961 C24.11049324 117.98945805 24.84139168 117.27660648 25.59443855 116.54215336 C26.58637215 115.59565922 26.58637215 115.59565922 27.5983448 114.63004398 C29.70603979 111.33066859 29.48814035 109.2540052 29.03193855 105.38590336 C28.03978021 102.37401207 26.71519853 99.56846487 25.3327198 96.71793461 C24.75243019 95.48005695 24.75243019 95.48005695 24.16041756 94.21717167 C22.90105047 91.53807745 21.62317824 88.86829777 20.34443855 86.19840336 C19.47269236 84.3556379 18.60217512 82.51229058 17.73286629 80.66837406 C16.42227764 77.89020799 15.11022385 75.11280338 13.79245186 72.33803654 C11.15234238 66.77875284 8.55766338 61.20192052 6.01631355 55.59684086 C5.42482217 54.2975779 4.83327171 52.99834184 4.24165535 51.69913578 C3.16980536 49.33985845 2.10327344 46.97815539 1.04292488 44.61368656 C0.32785774 43.05267216 0.32785774 43.05267216 -0.4016552 41.46012211 C-0.80440666 40.56897709 -1.20715813 39.67783207 -1.62211418 38.75968266 C-3.09001544 36.17081926 -4.78037367 34.38719491 -6.96806145 32.38590336 Z M356.03193855 66.38590336 C356.59846582 72.76457116 357.39034513 79.03939237 358.52321053 85.34121037 C358.74583758 86.60564499 358.74583758 86.60564499 358.97296214 87.89562374 C359.46597387 90.69046632 359.96427462 93.48433819 360.46260262 96.27823734 C360.81948251 98.29493532 361.17603605 100.31169107 361.53228951 102.32849979 C362.49815779 107.79089424 363.46865564 113.2524569 364.44005108 118.71387076 C365.46126314 124.45964885 366.47837428 130.2061529 367.49598885 135.95256901 C369.20844777 145.61934737 370.9236831 155.28562967 372.64082527 164.95157719 C374.83077439 177.27906077 377.01637689 189.60731058 379.20049095 201.93582916 C381.09169192 212.6108565 382.98474234 223.28555574 384.87817097 233.96018815 C385.47945927 237.3503988 386.08053932 240.74064633 386.68160439 244.13089657 C388.66519586 255.31637148 390.65431832 266.50080762 392.6581409 277.68267757 C393.52095027 282.50349061 394.37265944 287.32596948 395.20821977 292.15157956 C395.75756023 295.31441829 396.31931838 298.4750571 396.87861824 301.6361475 C397.05932491 302.7072272 397.24003159 303.7783069 397.42621422 304.88184357 C397.59764317 305.83713487 397.76907211 306.79242617 397.94569588 307.77666569 C398.08505939 308.58133809 398.22442291 309.38601049 398.36800957 310.21506691 C399.15265305 312.78060134 400.24342275 314.39764182 402.03193855 316.38590336 C404.06532573 316.76783581 404.06532573 316.76783581 406.32344246 316.32682133 C407.21509102 316.1982172 408.10673958 316.06961308 409.02540779 315.93711185 C414.83807168 314.87143517 420.60490894 313.63616631 426.36787605 312.33121586 C427.73720748 312.02548144 429.10664536 311.7202235 430.47618294 311.41541386 C433.33281215 310.77841135 436.18856591 310.13767308 439.0436573 309.49381351 C442.66863383 308.67635416 446.29499128 307.8652482 449.92194366 307.05660534 C453.42523361 306.2752805 456.92784149 305.49091885 460.43037605 304.70621586 C461.71511818 304.41860386 462.99986031 304.13099186 464.32353401 303.83466434 C471.92069208 302.1221593 479.48649321 300.31372948 487.03193855 298.38590336 C487.03193855 294.58266252 485.80452078 292.80779329 483.95381355 289.48746586 C483.63135155 288.90517216 483.30888954 288.32287846 482.97665596 287.72293949 C481.91800257 285.81537174 480.85017915 283.91311632 479.78193855 282.01090336 C479.04413351 280.68675521 478.30675059 279.36237178 477.56978035 278.03775883 C472.42591708 268.80802447 467.20847395 259.62046767 461.9420948 250.46012211 C458.86018539 245.0972456 455.81980447 239.71131649 452.78193855 234.32340336 C448.25471819 226.29750332 443.6951413 218.2906331 439.11580086 210.29438114 C433.12595822 199.83506498 427.19419664 189.34553474 421.32124519 178.81998539 C416.94057538 170.9802401 412.49717311 163.17763083 408.03193855 155.38590336 C402.98472482 146.57863613 397.97817461 137.75043946 393.03193855 128.88590336 C387.378293 118.75625287 381.65361146 108.66872133 375.88301277 98.60538578 C372.7116174 93.07472501 369.54914718 87.53972328 366.42256355 81.98355961 C365.59135994 80.51161137 365.59135994 80.51161137 364.74336433 79.0099268 C363.71136687 77.18098207 362.68347106 75.34971481 361.66035652 73.51578617 C360.98190681 72.31647465 360.98190681 72.31647465 360.28975105 71.09293461 C359.89932625 70.39659916 359.50890144 69.70026371 359.10664558 68.98282719 C358.11080745 67.22019325 358.11080745 67.22019325 356.03193855 66.38590336 Z M52.03193855 129.38590336 C52.03193855 255.11590336 52.03193855 380.84590336 52.03193855 510.38590336 C59.34652405 506.72861061 66.4834374 503.1022418 73.53193855 499.01090336 C75.35998629 497.95868579 77.18811573 496.90661015 79.01631355 495.85465336 C80.46747566 495.01740726 80.46747566 495.01740726 81.94795418 494.16324711 C87.5522019 490.93344 93.16688287 487.72186798 98.78193855 484.51090336 C99.37390022 484.1721619 99.96586189 483.83342045 100.5757618 483.4844141 C108.95036432 478.69332542 117.35381209 473.95740692 125.78193855 469.26090336 C133.87918134 464.74819814 141.91466183 460.14440062 149.90693855 455.44840336 C159.58287669 449.76465783 169.35749795 444.27800076 179.17817879 438.84879398 C188.56515821 433.65694321 197.88826024 428.36150805 207.1896534 423.01822758 C212.71730921 419.84369513 218.24889711 416.6760368 223.78193855 413.51090336 C224.37426277 413.17201084 224.96658699 412.83311832 225.57686043 412.48395634 C235.05297131 407.06454764 244.56520869 401.71231095 254.09614754 396.38980961 C264.1146961 390.79109173 274.07613995 385.09522493 284.03193855 379.38590336 C288.61425512 376.75912416 293.19749506 374.13396806 297.78193855 371.51090336 C298.37507851 371.17143681 298.96821846 370.83197025 299.57933235 370.48221684 C308.96974569 365.11007505 318.40162854 359.81583595 327.85225105 354.55021 C336.23365056 349.86581688 344.52447427 345.03493409 352.80439949 340.1739893 C359.79714851 336.07820265 366.84025177 332.12220938 374.03193855 328.38590336 C370.25079416 324.25573026 366.39865502 321.60944205 361.53193855 318.88590336 C359.99812207 318.00528948 358.46562751 317.12237018 356.9342823 316.23746586 C356.13103523 315.77372562 355.32778816 315.30998539 354.50020027 314.83219242 C350.31919286 312.38231231 346.20778962 309.82224609 342.09443855 307.26090336 C340.31190049 306.15280789 338.52934799 305.04473565 336.7467823 303.93668461 C335.82365242 303.3625684 334.90052254 302.78845219 333.94941902 302.19693851 C328.69338698 298.93424013 323.42545254 295.6908953 318.15693855 292.44840336 C317.06171883 291.77430424 315.9664991 291.10020512 314.8380909 290.40567875 C306.69604246 285.39902159 298.5337349 280.42633622 290.36445808 275.4642725 C283.20019315 271.10829525 276.06815136 266.70214796 268.94478035 262.27970219 C262.49497254 258.27998568 256.0188982 254.32503569 249.53193855 250.38590336 C241.30986897 245.39314528 233.11830202 240.35417433 224.94600105 235.28043461 C218.49576201 231.2805116 212.01926131 227.32535306 205.53193855 223.38590336 C197.38123317 218.43538716 189.25667411 213.44521124 181.15254402 208.41886234 C164.93451079 198.36089753 148.67504557 188.37141316 132.36445808 178.4642725 C125.20019315 174.10829525 118.06815136 169.70214796 110.94478035 165.27970219 C103.54090907 160.68834271 96.10024745 156.15896603 88.6530323 151.63834476 C81.05446567 147.02105249 73.48939577 142.35136348 65.94404793 137.64762211 C65.13773933 137.1461768 64.33143074 136.64473148 63.50068855 136.12809086 C62.80395027 135.69351566 62.10721199 135.25894047 61.38936043 134.81119633 C58.30396648 132.94577277 55.16236881 131.17472065 52.03193855 129.38590336 Z M27.96162605 138.13980961 C27.31967293 138.7398682 26.6777198 139.3399268 26.01631355 139.95816898 C25.3202198 140.61494633 24.62412605 141.27172367 23.90693855 141.94840336 C23.19279793 142.61936039 22.4786573 143.29031742 21.74287605 143.98160648 C16.13641221 149.27714848 10.65476464 154.68778871 5.25801277 160.19669437 C2.3191278 163.17922615 -0.66718555 166.03065431 -3.84306145 168.76090336 C-8.45314609 172.74032132 -12.70041801 177.04543324 -16.96806145 181.38590336 C-21.81446549 186.31501054 -26.69803763 191.07562547 -31.9407177 195.58121586 C-35.78804201 199.00600167 -39.3582083 202.71444862 -42.96806145 206.38590336 C-47.81446549 211.31501054 -52.69803763 216.07562547 -57.9407177 220.58121586 C-61.78804201 224.00600167 -65.3582083 227.71444862 -68.96806145 231.38590336 C-73.82452491 236.32524162 -78.71827921 241.09741476 -83.9719677 245.61246586 C-87.63601633 248.86780457 -91.03511188 252.39042283 -94.46806145 255.88590336 C-98.51754608 260.0091491 -102.55165093 264.08602036 -106.93681145 267.85465336 C-111.51984805 271.79777728 -115.73146234 276.07700733 -119.96806145 280.38590336 C-124.83359667 285.3344682 -129.7355074 290.12062254 -134.99931145 294.64420414 C-138.47303213 297.71730971 -141.71088084 301.02413194 -144.96806145 304.32340336 C-145.64739738 305.00725101 -146.32673332 305.69109867 -147.0266552 306.39566898 C-148.67614504 308.05677495 -150.32322825 309.72018849 -151.96806145 311.38590336 C-148.21627223 315.8367159 -144.37903802 320.05470519 -140.1907177 324.10074711 C-138.32124555 326.02278789 -136.5829089 327.98102601 -134.8391552 330.01480961 C-130.46250351 335.05464341 -125.7209939 339.7039102 -120.96806145 344.38590336 C-115.71798229 349.55762312 -110.59734373 354.73629546 -105.8000927 360.33121586 C-102.05116938 364.53576526 -97.97961555 368.4342232 -93.96806145 372.38590336 C-88.71798229 377.55762312 -83.59734373 382.73629546 -78.8000927 388.33121586 C-75.05116938 392.53576526 -70.97961555 396.4342232 -66.96806145 400.38590336 C-61.71798229 405.55762312 -56.59734373 410.73629546 -51.8000927 416.33121586 C-48.05116938 420.53576526 -43.97961555 424.4342232 -39.96806145 428.38590336 C-34.71798229 433.55762312 -29.59734373 438.73629546 -24.8000927 444.33121586 C-21.05116938 448.53576526 -16.97961555 452.4342232 -12.96806145 456.38590336 C-7.71798229 461.55762312 -2.59734373 466.73629546 2.1999073 472.33121586 C5.94883062 476.53576526 10.02038445 480.4342232 14.03193855 484.38590336 C19.48554338 489.7581111 24.82819555 495.12215287 29.7545948 500.98746586 C30.17611824 501.44895023 30.59764168 501.91043461 31.03193855 502.38590336 C31.36193855 502.38590336 31.69193855 502.38590336 32.03193855 502.38590336 C32.03193855 381.27590336 32.03193855 260.16590336 32.03193855 135.38590336 C30.25103309 135.38590336 29.20921819 136.97250806 27.96162605 138.13980961 Z M478.86494637 317.60758305 C477.61554268 317.87496281 476.36613899 318.14234257 475.07887459 318.41782475 C473.71423563 318.71431361 472.3496329 319.01096926 470.98506355 319.30777836 C469.57185562 319.61236297 468.15858547 319.91665905 466.74525642 320.22068119 C463.7756359 320.86041016 460.80664432 321.50295998 457.8380909 322.14762211 C454.08091672 322.96341506 450.32251634 323.77337242 446.56363487 324.58125782 C443.63732605 325.21072223 440.71160552 325.84288721 437.7860508 326.47584629 C436.40388094 326.77466888 435.02156735 327.07282763 433.6390934 327.37024021 C429.7603889 328.20573942 425.88782847 329.06469627 422.01907539 329.9450922 C419.90887647 330.41320251 417.79286903 330.84626897 415.67537117 331.2800684 C414.23898545 331.59457843 412.80282133 331.91010252 411.36689949 332.22672367 C410.08103951 332.49720524 408.79517952 332.76768681 407.47035408 333.04636478 C403.35819996 334.64837857 401.13089307 336.58229038 399.03193855 340.38590336 C397.8379533 343.53087755 397.09306325 346.71810668 396.37129402 349.99991703 C396.14727032 350.95246939 395.92324661 351.90502174 395.69243431 352.88643932 C394.95386372 356.04297495 394.23921329 359.20444137 393.52412605 362.36637211 C393.00319683 364.61100566 392.48052844 366.85523623 391.95622444 369.0990839 C390.85666828 373.81348932 389.76581716 378.52978762 388.68123055 383.24765873 C387.10009169 390.11155338 385.48175578 396.96617623 383.84932137 403.81803226 C383.58725867 404.91816528 383.32519598 406.0182983 383.05519199 407.15176868 C382.52463859 409.37848411 381.99400364 411.60518012 381.46328735 413.83185673 C380.11649949 419.49001086 378.77775557 425.15006393 377.43940926 430.81021976 C377.17138528 431.94370476 376.9033613 433.07718975 376.62721539 434.24502277 C371.65727647 455.26863203 366.69891664 476.29496246 361.7522831 497.32406712 C361.06845729 500.23067988 360.38421309 503.13719381 359.69984627 506.04367924 C357.53427753 515.24328675 355.37750933 524.44483531 353.24159431 533.65137577 C352.64852566 536.202733 352.05242683 538.75338796 351.45314217 541.30329227 C350.65420217 544.70646772 349.86661976 548.11204995 349.0827198 551.51871586 C348.85392632 552.4829195 348.62513283 553.44712315 348.3894062 554.44054508 C348.19192284 555.31083851 347.99443947 556.18113194 347.79097176 557.07779789 C347.61846397 557.82079136 347.44595619 558.56378483 347.2682209 559.32929325 C347.00659769 561.60647112 347.34503739 563.21424879 348.03193855 565.38590336 C356.06273247 551.77530859 363.91476565 538.08826492 371.55903816 524.25675297 C375.85138096 516.49462234 380.20851858 508.7737927 384.62324715 501.08072758 C388.20251227 494.84298925 391.74933578 488.58767748 395.28193855 482.32340336 C400.48281819 473.10341217 405.73074585 463.91084581 410.99220467 454.72535038 C415.7647782 446.39036617 420.48228576 438.02628891 425.15693855 429.63590336 C429.72784215 421.43186697 434.39788634 413.29467557 439.15693855 405.19840336 C444.15038783 396.69999003 448.95520347 388.12050848 453.6427784 379.45011234 C458.38981119 370.68279374 463.33125599 362.03361233 468.30293465 353.39225101 C471.37988626 348.04212646 474.44951623 342.68782111 477.5157032 337.33152103 C478.57212683 335.48735229 479.63058573 333.6443626 480.68916512 331.8014307 C481.33981941 330.66528324 481.99047371 329.52913578 482.6608448 328.35855961 C483.2390699 327.3505933 483.817295 326.34262699 484.41304207 325.30411625 C486.04057076 322.37034299 487.55380191 319.39731638 489.03193855 316.38590336 C485.34388162 316.38590336 482.44955755 316.83472054 478.86494637 317.60758305 Z M371.21162605 349.95621586 C370.21389168 350.51566898 369.2161573 351.07512211 368.18818855 351.65152836 C366.5639698 352.57191898 366.5639698 352.57191898 364.90693855 353.51090336 C363.78545418 354.14254398 362.6639698 354.77418461 361.50850105 355.42496586 C352.97111234 360.24252456 344.50260383 365.17565861 336.04805183 370.13687992 C327.97675074 374.86276134 319.83175683 379.44653558 311.66206551 383.99967289 C303.82096998 388.37341936 296.01162933 392.80077502 288.21943855 397.26090336 C287.63698372 397.59426701 287.05452888 397.92763065 286.4544239 398.27109623 C283.49600324 399.9646405 280.5380399 401.65898162 277.5802784 403.3536768 C271.15216905 407.03615568 264.71847167 410.70886731 258.28578377 414.38333988 C256.53837315 415.38152873 254.79100022 416.3797835 253.0436573 417.37809086 C252.46676155 417.70768803 251.8898658 418.03728519 251.29548836 418.37687016 C247.76411438 420.39486851 244.23406918 422.4151708 240.70500374 424.43720341 C237.7519084 426.12918176 234.79830866 427.820278 231.84443855 429.51090336 C231.26343391 429.84346134 230.68242928 430.17601933 230.08381844 430.51865482 C221.84408704 435.23260234 213.57397014 439.88958331 205.28193855 444.51090336 C197.14461457 449.04667122 189.06654385 453.67062389 181.03193855 458.38590336 C171.96998178 463.70410595 162.84001617 468.88461188 153.66206551 473.99967289 C142.86209413 480.02387404 132.12930016 486.16379534 121.39966011 492.31194401 C117.17008349 494.73529419 112.937696 497.15367847 108.70381355 499.56949711 C95.4540495 507.13066804 82.22106956 514.71931489 69.03193855 522.38590336 C71.44315726 525.24233916 73.4689705 526.02436388 77.06456184 526.91631413 C78.10736148 527.18046903 79.15016111 527.44462393 80.22456074 527.71678352 C81.37094171 527.99568145 82.51732267 528.27457937 83.69844246 528.56192875 C84.90948049 528.86541202 86.12051851 529.16889528 87.36825466 529.48157501 C90.71055606 530.31689385 94.05495314 531.14266793 97.40060115 531.96440983 C100.95290868 532.83929942 104.50219714 533.72627424 108.05185127 534.61185551 C114.88942406 536.31571593 121.72969784 538.00847137 128.57097143 539.69740355 C136.42731264 541.6374372 144.28072722 543.58918902 152.13399255 545.54162967 C168.7980078 549.68408939 185.46637692 553.80883672 202.1360634 557.92840534 C208.43409037 559.48497122 214.73140142 561.04441969 221.02852058 562.60465336 C237.61275546 566.71314077 254.19979955 570.80952326 270.79535103 574.8720789 C277.37192622 576.48316904 283.94466633 578.10843825 290.51288033 579.75328922 C294.15397839 580.66467657 297.79661676 581.56979109 301.43956184 582.47376347 C303.00043277 582.86295617 304.56052518 583.25528965 306.11967659 583.65131474 C308.11570865 584.15828735 310.11473826 584.65341724 312.1139698 585.14762211 C313.17849373 585.41534428 314.24301765 585.68306644 315.33979988 585.95890141 C318.82834937 586.54904665 318.82834937 586.54904665 322.03193855 585.38590336 C324.2577597 581.44160298 325.62769945 577.69584515 326.65986824 573.29923344 C326.94666954 572.09380894 327.23347084 570.88838444 327.52896309 569.64643192 C327.83740187 568.31613548 328.14567948 566.98580166 328.45381355 565.65543461 C328.78927038 564.23202019 329.12536433 562.80875579 329.46203804 561.3856287 C330.38355191 557.48137987 331.29544589 553.57493896 332.20562553 549.66803455 C332.98140976 546.34362429 333.76284928 543.02055445 334.5443697 539.69748878 C337.3899725 527.59744985 340.21244614 515.49204831 343.03193855 503.38590336 C343.51351969 501.31880384 343.9951075 499.25170588 344.47670174 497.18460941 C348.92657342 478.08239068 353.36997742 458.97866996 357.79854012 439.87149906 C358.02817892 438.88097192 358.25781773 437.89044477 358.49441528 436.86990166 C359.63411518 431.9535529 360.77289141 427.03699343 361.91002083 422.12004948 C364.28906804 411.84180185 366.69486908 401.57047936 369.13398933 391.30631351 C369.89672618 388.08618127 370.65901722 384.8659438 371.42119217 381.64567852 C371.90808525 379.59499872 372.39730621 377.54487001 372.88903809 375.49534512 C373.57074367 372.65396059 374.24456007 369.81080368 374.91694832 366.96720219 C375.21739272 365.72983153 375.21739272 365.72983153 375.52390671 364.46746349 C376.85404748 358.79687671 377.57900434 353.19099915 378.03193855 347.38590336 C375.22370656 347.38590336 373.658667 348.57950447 371.21162605 349.95621586 Z M-131.96806145 361.38590336 C-130.64056442 364.88081406 -129.10506112 368.10142705 -127.27274895 371.35855961 C-126.73005363 372.32600101 -126.18735832 373.29344242 -125.6282177 374.29020023 C-125.03911613 375.33240726 -124.45001457 376.3746143 -123.84306145 377.44840336 C-123.22560051 378.54604008 -122.60813957 379.6436768 -121.9719677 380.77457523 C-117.00466132 389.58930428 -111.98542113 398.3742293 -106.95542717 407.15329838 C-101.57162295 416.55008924 -96.25719059 425.98405685 -90.97807121 435.44010258 C-86.83835851 442.84912988 -82.64740626 450.22716289 -78.42704582 457.5904932 C-74.8332702 463.86298467 -71.26949104 470.15184982 -67.71806145 476.44840336 C-62.51710528 485.66835164 -57.2692544 494.86096047 -52.00779533 504.04645634 C-47.23522147 512.38144112 -42.51777188 520.74554956 -37.84306145 529.13590336 C-32.69043948 538.38267994 -27.3984249 547.53891483 -22.03739738 556.6661768 C-16.49178766 566.13637187 -11.19179271 575.73511652 -5.96806145 585.38590336 C-5.30806145 585.38590336 -4.64806145 585.38590336 -3.96806145 585.38590336 C-3.57650871 584.69778568 -3.18495598 584.00966801 -2.78153801 583.30069828 C4.72812032 570.12810875 12.33186021 557.06396751 20.5436573 544.31168461 C25.94354995 536.50507606 25.94354995 536.50507606 27.52876472 527.39200687 C25.41984407 518.87652726 15.69023229 511.84953635 9.59443855 505.88590336 C7.57142131 503.8998318 5.55175203 501.91044154 3.5358448 499.91715336 C3.04641396 499.43331181 2.55698311 498.94947025 2.05272102 498.45096684 C-0.5431981 495.86594308 -3.03392188 493.23667759 -5.4094677 490.44840336 C-10.40474269 484.59544483 -15.9975445 479.28945391 -21.46806145 473.88590336 C-33.80685111 461.69815688 -33.80685111 461.69815688 -39.16142082 455.41520023 C-43.21030371 450.86731989 -47.63321882 446.65973278 -51.96806145 442.38590336 C-57.55520174 436.87740244 -63.06757028 431.37180494 -68.17118645 425.40543461 C-71.90442619 421.20959777 -75.96863216 417.32563967 -79.96806145 413.38590336 C-89.5971694 403.90051343 -89.5971694 403.90051343 -93.43681145 399.41715336 C-97.82949072 394.29407542 -102.66527703 389.62075589 -107.46806145 384.88590336 C-113.00054053 379.43167716 -118.47112109 374.0078531 -123.47636223 368.05973148 C-125.75330473 365.50478586 -128.24814245 363.45822259 -130.96806145 361.38590336 C-131.29806145 361.38590336 -131.62806145 361.38590336 -131.96806145 361.38590336 Z M43.46650887 541.65104008 C40.46215037 545.28428913 38.21240829 549.35085637 35.90693855 553.44840336 C34.76846598 555.42545576 33.6291232 557.4020073 32.4889698 559.37809086 C31.91614265 560.37808109 31.34331551 561.37807133 30.75312996 562.4083643 C27.63906882 567.79546921 24.39790196 573.10616655 21.1662159 578.42325687 C17.59920683 584.33273228 14.34715824 590.3080006 11.03193855 596.38590336 C99.80193855 596.38590336 188.57193855 596.38590336 280.03193855 596.38590336 C276.87697335 594.28259322 274.56873161 593.60231448 270.91401863 592.6686182 C269.6366584 592.33936344 268.35929817 592.01010868 267.04323006 591.6708765 C265.62934568 591.31272363 264.21542442 590.95471633 262.8014698 590.59684086 C261.32371054 590.21845803 259.84607235 589.83960212 258.36854744 589.46030521 C254.36647561 588.43463095 250.36253333 587.41644306 246.35816002 586.39979649 C242.98295501 585.54194675 239.60884122 584.67984749 236.23470402 583.8178091 C212.17613633 577.67213989 188.09709238 571.60852676 163.99800301 565.62369633 C161.38551664 564.97452234 158.77313544 564.32492701 156.1608448 563.67496586 C155.50473528 563.51172195 154.84862576 563.34847805 154.17263412 563.18028736 C142.68935231 560.32054025 131.22258993 557.39776623 119.75878906 554.4610033 C116.88310702 553.72474034 114.00709816 552.98976959 111.13095284 552.25531864 C110.18453517 552.01364145 109.2381175 551.77196426 108.26302052 551.52296352 C106.35500193 551.03579051 104.4469673 550.54868028 102.53891659 550.06163311 C96.92265325 548.62720891 91.30864832 547.18432158 85.69610882 545.7354002 C82.19836835 544.83454801 78.6986351 543.94163746 75.19833755 543.05077839 C73.56517661 542.6333303 71.93286819 542.21253041 70.30149841 541.78813648 C68.05104888 541.20312394 65.7978548 540.63010395 63.5436573 540.05973148 C62.27997322 539.73492802 61.01628914 539.41012455 59.7143116 539.07547855 C53.696619 537.94858253 48.24430696 537.05204697 43.46650887 541.65104008 Z " fill="#02424C" transform="translate(183.96806144714355,45.61409664154053)"/>
</svg>
